<?xml version="1.0"?>
<svg xmlns="http://www.w3.org/2000/svg" xmlns:xlink="http://www.w3.org/1999/xlink" xmlns:ev="http://www.w3.org/2001/xml-events" version="1.1" baseProfile="full" viewBox="13 14 842 828">
	<g>
		<g>
			<polygon points="812.281 322.773 814.815 324.545 813.683 325.529 " stroke="#000000" />
			<path fill="none" d=" M849,365 L812.281,322.773" stroke="#000000" />
		</g>
		<g>
			<polygon points="229.74 695.791 228.352 698.555 227.215 697.576 " stroke="#000000" />
			<path fill="none" d=" M190,742 L229.74,695.791" stroke="#000000" />
		</g>
		<g>
			<polygon points="255.445 380.02 254.964 376.965 256.458 377.098 " stroke="#000000" />
			<path fill="none" d=" M260,329 L255.445,380.02" stroke="#000000" />
		</g>
		<g>
			<polygon points="589.837 709.882 590.921 706.986 592.156 707.837 " stroke="#000000" />
			<path fill="none" d=" M618,669 L589.837,709.882" stroke="#000000" />
		</g>
		<g>
			<polygon points="142.925 789.943 141.671 792.769 140.488 791.847 " stroke="#000000" />
			<path fill="none" d=" M107,836 L142.925,789.943" stroke="#000000" />
		</g>
		<g>
			<polygon points="786.134 576.83 783.338 575.507 784.289 574.347 " stroke="#000000" />
			<path fill="none" d=" M740,539 L786.134,576.83" stroke="#000000" />
		</g>
		<g>
			<polygon points="230.853 687.484 228.888 685.097 230.242 684.453 " stroke="#000000" />
			<path fill="none" d=" M204,631 L230.853,687.484" stroke="#000000" />
		</g>
		<g>
			<polygon points="819.068 430.089 817.173 432.532 816.246 431.353 " stroke="#000000" />
			<path fill="none" d=" M767,471 L819.068,430.089" stroke="#000000" />
		</g>
		<g>
			<polygon points="56.9595 768.109 55.6016 765.331 57.0687 765.019 " stroke="#000000" />
			<path fill="none" d=" M48,726 L56.9595,768.109" stroke="#000000" />
		</g>
		<g>
			<polygon points="646.692 355.538 644.488 357.708 643.727 356.415 " stroke="#000000" />
			<path fill="none" d=" M595,386 L646.692,355.538" stroke="#000000" />
		</g>
		<g>
			<polygon points="262.976 450.982 261.76 453.825 260.565 452.918 " stroke="#000000" />
			<path fill="none" d=" M225,501 L262.976,450.982" stroke="#000000" />
		</g>
		<g>
			<polygon points="357.532 580.398 354.911 578.758 355.991 577.717 " stroke="#000000" />
			<path fill="none" d=" M309,530 L357.532,580.398" stroke="#000000" />
		</g>
		<g>
			<polygon points="528.869 409.13 527.46 406.377 528.922 406.038 " stroke="#000000" />
			<path fill="none" d=" M517,358 L528.869,409.13" stroke="#000000" />
		</g>
		<g>
			<polygon points="741.845 534.353 742.255 531.288 743.649 531.841 " stroke="#000000" />
			<path fill="none" d=" M767,471 L741.845,534.353" stroke="#000000" />
		</g>
		<g>
			<polygon points="520.089 557.885 517.275 556.603 518.209 555.43 " stroke="#000000" />
			<path fill="none" d=" M470,518 L520.089,557.885" stroke="#000000" />
		</g>
		<g>
			<polygon points="590.408 387.978 587.949 389.854 587.356 388.476 " stroke="#000000" />
			<path fill="none" d=" M530,414 L590.408,387.978" stroke="#000000" />
		</g>
		<g>
			<polygon points="141.104 787.016 138.319 788.36 138.015 786.891 " stroke="#000000" />
			<path fill="none" d=" M93,797 L141.104,787.016" stroke="#000000" />
		</g>
		<g>
			<polygon points="304.655 532.473 302.419 534.609 301.676 533.306 " stroke="#000000" />
			<path fill="none" d=" M244,567 L304.655,532.473" stroke="#000000" />
		</g>
		<g>
			<polygon points="415.868 316.362 416.293 313.299 417.685 313.86 " stroke="#000000" />
			<path fill="none" d=" M443,249 L415.868,316.362" stroke="#000000" />
		</g>
		<g>
			<polygon points="139.346 659.828 136.828 661.623 136.28 660.227 " stroke="#000000" />
			<path fill="none" d=" M88,680 L139.346,659.828" stroke="#000000" />
		</g>
		<g>
			<polygon points="486 620 483.15 618.8 484.05 617.6 " stroke="#000000" />
			<path fill="none" d=" M434,581 L486,620" stroke="#000000" />
		</g>
		<g>
			<polygon points="45.4534 730.303 44.5709 733.267 43.28 732.503 " stroke="#000000" />
			<path fill="none" d=" M19,775 L45.4534,730.303" stroke="#000000" />
		</g>
		<g>
			<polygon points="91.2913 650.301 89.5612 647.738 90.9709 647.225 " stroke="#000000" />
			<path fill="none" d=" M77,611 L91.2913,650.301" stroke="#000000" />
		</g>
		<g>
			<polygon points="220.225 502.482 217.582 504.087 217.137 502.655 " stroke="#000000" />
			<path fill="none" d=" M167,519 L220.225,502.482" stroke="#000000" />
		</g>
		<g>
			<polygon points="120.943 554.925 122.847 552.488 123.769 553.671 " stroke="#000000" />
			<path fill="none" d=" M167,519 L120.943,554.925" stroke="#000000" />
		</g>
		<g>
			<polygon points="113.988 561.991 112.779 564.837 111.582 563.934 " stroke="#000000" />
			<path fill="none" d=" M77,611 L113.988,561.991" stroke="#000000" />
		</g>
		<g>
			<polygon points="764.859 346.868 764.905 349.96 763.444 349.618 " stroke="#000000" />
			<path fill="none" d=" M751,406 L764.859,346.868" stroke="#000000" />
		</g>
		<g>
			<polygon points="288.023 277.031 289.991 274.646 290.882 275.853 " stroke="#000000" />
			<path fill="none" d=" M326,249 L288.023,277.031" stroke="#000000" />
		</g>
		<g>
			<polygon points="297.114 678.062 294.342 679.432 294.023 677.967 " stroke="#000000" />
			<path fill="none" d=" M233,692 L297.114,678.062" stroke="#000000" />
		</g>
		<g>
			<polygon points="429.004 581.205 426.038 582.078 425.976 580.579 " stroke="#000000" />
			<path fill="none" d=" M361,584 L429.004,581.205" stroke="#000000" />
		</g>
		<g>
			<polygon points="687.42 317.491 685.796 320.122 684.748 319.048 " stroke="#000000" />
			<path fill="none" d=" M651,353 L687.42,317.491" stroke="#000000" />
		</g>
		<g>
			<polygon points="637.626 215.578 634.638 214.78 635.365 213.468 " stroke="#000000" />
			<path fill="none" d=" M577,182 L637.626,215.578" stroke="#000000" />
		</g>
		<g>
			<polygon points="366.554 646.02 365.539 643.099 367.033 642.965 " stroke="#000000" />
			<path fill="none" d=" M361,584 L366.554,646.02" stroke="#000000" />
		</g>
		<g>
			<polygon points="555.226 607.84 552.938 605.76 554.186 604.928 " stroke="#000000" />
			<path fill="none" d=" M524,561 L555.226,607.84" stroke="#000000" />
		</g>
		<g>
			<polygon points="84.7191 683.773 83.3165 686.529 82.1846 685.545 " stroke="#000000" />
			<path fill="none" d=" M48,726 L84.7191,683.773" stroke="#000000" />
		</g>
		<g>
			<polygon points="485.963 625.95 483.983 628.326 483.098 627.115 " stroke="#000000" />
			<path fill="none" d=" M438,661 L485.963,625.95" stroke="#000000" />
		</g>
		<g>
			<polygon points="695.818 253.26 692.897 252.243 693.719 250.988 " stroke="#000000" />
			<path fill="none" d=" M642,218 L695.818,253.26" stroke="#000000" />
		</g>
		<g>
			<polygon points="383.94 239.772 387.02 239.494 386.788 240.976 " stroke="#000000" />
			<path fill="none" d=" M443,249 L383.94,239.772" stroke="#000000" />
		</g>
		<g>
			<polygon points="738.155 599.765 735.063 599.751 735.433 598.297 " stroke="#000000" />
			<path fill="none" d=" M692,588 L738.155,599.765" stroke="#000000" />
		</g>
		<g>
			<polygon points="362.358 652.857 359.851 654.667 359.294 653.275 " stroke="#000000" />
			<path fill="none" d=" M302,677 L362.358,652.857" stroke="#000000" />
		</g>
		<g>
			<polygon points="436.481 576.659 437.318 573.682 438.62 574.426 " stroke="#000000" />
			<path fill="none" d=" M470,518 L436.481,576.659" stroke="#000000" />
		</g>
		<g>
			<polygon points="687.419 590.004 684.971 591.894 684.37 590.519 " stroke="#000000" />
			<path fill="none" d=" M628,616 L687.419,590.004" stroke="#000000" />
		</g>
		<g>
			<polygon points="591.649 129.814 591.56 132.905 590.116 132.5 " stroke="#000000" />
			<path fill="none" d=" M577,182 L591.649,129.814" stroke="#000000" />
		</g>
		<g>
			<polygon points="736.501 542.572 734.938 545.24 733.866 544.19 " stroke="#000000" />
			<path fill="none" d=" M692,588 L736.501,542.572" stroke="#000000" />
		</g>
		<g>
			<polygon points="553.064 612.798 550.222 614.018 549.983 612.537 " stroke="#000000" />
			<path fill="none" d=" M490,623 L553.064,612.798" stroke="#000000" />
		</g>
		<g>
			<polygon points="551.858 23.8897 550.557 26.6948 549.39 25.7523 " stroke="#000000" />
			<path fill="none" d=" M513,72 L551.858,23.8897" stroke="#000000" />
		</g>
		<g>
			<polygon points="699.233 260.941 699.514 264.02 698.032 263.79 " stroke="#000000" />
			<path fill="none" d=" M691,314 L699.233,260.941" stroke="#000000" />
		</g>
		<g>
			<polygon points="618.927 664.087 618.746 661 620.22 661.278 " stroke="#000000" />
			<path fill="none" d=" M628,616 L618.927,664.087" stroke="#000000" />
		</g>
		<g>
			<polygon points="97.9914 655.294 101.03 654.721 100.942 656.218 " stroke="#000000" />
			<path fill="none" d=" M144,658 L97.9914,655.294" stroke="#000000" />
		</g>
		<g>
			<polygon points="265.127 442.077 263.864 439.254 265.341 438.992 " stroke="#000000" />
			<path fill="none" d=" M255,385 L265.127,442.077" stroke="#000000" />
		</g>
		<g>
			<polygon points="487.982 698.024 485.125 696.841 486.018 695.636 " stroke="#000000" />
			<path fill="none" d=" M438,661 L487.982,698.024" stroke="#000000" />
		</g>
		<g>
			<polygon points="533.304 738.633 530.581 737.166 531.592 736.058 " stroke="#000000" />
			<path fill="none" d=" M492,701 L533.304,738.633" stroke="#000000" />
		</g>
		<g>
			<polygon points="764.952 337.111 763.59 334.335 765.057 334.02 " stroke="#000000" />
			<path fill="none" d=" M754,286 L764.952,337.111" stroke="#000000" />
		</g>
		<g>
			<polygon points="824.934 422.389 825.402 419.332 826.785 419.912 " stroke="#000000" />
			<path fill="none" d=" M849,365 L824.934,422.389" stroke="#000000" />
		</g>
		<g>
			<polygon points="186.464 745.536 184.873 748.187 183.813 747.127 " stroke="#000000" />
			<path fill="none" d=" M146,786 L186.464,745.536" stroke="#000000" />
		</g>
		<g>
			<polygon points="374.087 239.927 371.278 241.22 371 239.746 " stroke="#000000" />
			<path fill="none" d=" M326,249 L374.087,239.927" stroke="#000000" />
		</g>
		<g>
			<polygon points="747.381 402.55 744.693 401.022 745.728 399.937 " stroke="#000000" />
			<path fill="none" d=" M708,365 L747.381,402.55" stroke="#000000" />
		</g>
		<g>
			<polygon points="281.801 284.49 281.155 287.514 279.808 286.855 " stroke="#000000" />
			<path fill="none" d=" M260,329 L281.801,284.49" stroke="#000000" />
		</g>
		<g>
			<polygon points="47.5449 825.644 45.4185 823.399 46.7253 822.663 " stroke="#000000" />
			<path fill="none" d=" M19,775 L47.5449,825.644" stroke="#000000" />
		</g>
		<g>
			<polygon points="464.04 327.369 460.969 327.734 461.159 326.246 " stroke="#000000" />
			<path fill="none" d=" M414,321 L464.04,327.369" stroke="#000000" />
		</g>
		<g>
			<polygon points="62.1236 775.828 65.022 776.906 64.1737 778.143 " stroke="#000000" />
			<path fill="none" d=" M93,797 L62.1236,775.828" stroke="#000000" />
		</g>
		<g>
			<polygon points="749.629 283.572 746.643 282.77 747.371 281.459 " stroke="#000000" />
			<path fill="none" d=" M700,256 L749.629,283.572" stroke="#000000" />
		</g>
		<g>
			<polygon points="433.049 660.303 429.974 660.627 430.183 659.142 " stroke="#000000" />
			<path fill="none" d=" M367,651 L433.049,660.303" stroke="#000000" />
		</g>
		<g>
			<polygon points="199.44 633.052 197.012 634.967 196.397 633.599 " stroke="#000000" />
			<path fill="none" d=" M144,658 L199.44,633.052" stroke="#000000" />
		</g>
		<g>
			<polygon points="582.637 716.443 580.386 718.563 579.653 717.254 " stroke="#000000" />
			<path fill="none" d=" M537,742 L582.637,716.443" stroke="#000000" />
		</g>
		<g>
			<polygon points="592.439 120.032 591.357 117.135 592.848 116.966 " stroke="#000000" />
			<path fill="none" d=" M586,63 L592.439,120.032" stroke="#000000" />
		</g>
		<g>
			<polygon points="623.008 615.715 619.97 616.292 620.056 614.795 " stroke="#000000" />
			<path fill="none" d=" M558,612 L623.008,615.715" stroke="#000000" />
		</g>
		<g>
			<polygon points="446.628 245.56 448.289 242.951 449.321 244.039 " stroke="#000000" />
			<path fill="none" d=" M501,194 L446.628,245.56" stroke="#000000" />
		</g>
		<g>
			<polygon points="703.107 363.97 700.017 364.086 700.326 362.618 " stroke="#000000" />
			<path fill="none" d=" M651,353 L703.107,363.97" stroke="#000000" />
		</g>
		<g>
			<polygon points="582.045 59.9406 579.213 58.6982 580.131 57.5118 " stroke="#000000" />
			<path fill="none" d=" M533,22 L582.045,59.9406" stroke="#000000" />
		</g>
		<g>
			<polygon points="804.713 316.428 801.754 315.527 802.526 314.241 " stroke="#000000" />
			<path fill="none" d=" M754,286 L804.713,316.428" stroke="#000000" />
		</g>
		<g>
			<polygon points="241.35 571.24 240.396 574.181 239.124 573.386 " stroke="#000000" />
			<path fill="none" d=" M204,631 L241.35,571.24" stroke="#000000" />
		</g>
		<g>
			<polygon points="765.805 466.145 764.36 463.411 765.816 463.053 " stroke="#000000" />
			<path fill="none" d=" M751,406 L765.805,466.145" stroke="#000000" />
		</g>
		<g>
			<polygon points="102.027 835.477 98.9654 835.908 99.1225 834.417 " stroke="#000000" />
			<path fill="none" d=" M50,830 L102.027,835.477" stroke="#000000" />
		</g>
		<g>
			<polygon points="455.782 439.316 452.848 438.338 453.653 437.072 " stroke="#000000" />
			<path fill="none" d=" M394,400 L455.782,439.316" stroke="#000000" />
		</g>
		<g>
			<polygon points="328.027 453.48 324.965 453.915 325.121 452.423 " stroke="#000000" />
			<path fill="none" d=" M266,447 L328.027,453.48" stroke="#000000" />
		</g>
		<g>
			<polygon points="583.076 58.9441 580.713 56.9492 581.93 56.072 " stroke="#000000" />
			<path fill="none" d=" M555,20 L583.076,58.9441" stroke="#000000" />
		</g>
		<g>
			<polygon points="310.506 525.232 310.694 522.145 312.124 522.597 " stroke="#000000" />
			<path fill="none" d=" M333,454 L310.506,525.232" stroke="#000000" />
		</g>
		<g>
			<polygon points="706.419 360.257 704.759 357.648 706.182 357.173 " stroke="#000000" />
			<path fill="none" d=" M691,314 L706.419,360.257" stroke="#000000" />
		</g>
		<g>
			<polygon points="531.143 26.6424 530.725 29.7064 529.333 29.1493 " stroke="#000000" />
			<path fill="none" d=" M513,72 L531.143,26.6424" stroke="#000000" />
		</g>
		<g>
			<polygon points="89.0335 800.044 87.1101 802.466 86.1969 801.276 " stroke="#000000" />
			<path fill="none" d=" M50,830 L89.0335,800.044" stroke="#000000" />
		</g>
		<g>
			<polygon points="511.806 76.8554 511.818 79.9477 510.361 79.5895 " stroke="#000000" />
			<path fill="none" d=" M498,133 L511.806,76.8554" stroke="#000000" />
		</g>
		<g>
			<polygon points="395.227 395.153 395.236 392.061 396.69 392.429 " stroke="#000000" />
			<path fill="none" d=" M414,321 L395.227,395.153" stroke="#000000" />
		</g>
		<g>
			<polygon points="469.348 513.043 468.213 510.166 469.7 509.971 " stroke="#000000" />
			<path fill="none" d=" M460,442 L469.348,513.043" stroke="#000000" />
		</g>
		<g>
			<polygon points="525.358 415.857 522.851 417.667 522.294 416.275 " stroke="#000000" />
			<path fill="none" d=" M460,442 L525.358,415.857" stroke="#000000" />
		</g>
		<g>
			<polygon points="473.24 330.65 476.181 331.604 475.386 332.876 " stroke="#000000" />
			<path fill="none" d=" M517,358 L473.24,330.65" stroke="#000000" />
		</g>
		<g>
			<polygon points="390.256 403.314 388.507 405.864 387.513 404.741 " stroke="#000000" />
			<path fill="none" d=" M333,454 L390.256,403.314" stroke="#000000" />
		</g>
		<g>
			<polygon points="77.7872 615.938 79.0001 618.782 77.5188 619.018 " stroke="#000000" />
			<path fill="none" d=" M88,680 L77.7872,615.938" stroke="#000000" />
		</g>
		<g>
			<polygon points="242.617 562.195 241.066 559.52 242.508 559.105 " stroke="#000000" />
			<path fill="none" d=" M225,501 L242.617,562.195" stroke="#000000" />
		</g>
		<g>
			<polygon points="500.754 189.006 499.858 186.046 501.356 185.973 " stroke="#000000" />
			<path fill="none" d=" M498,133 L500.754,189.006" stroke="#000000" />
		</g>
		<g>
			<polygon points="747.565 598.96 749.998 597.052 750.61 598.421 " stroke="#000000" />
			<path fill="none" d=" M790,580 L747.565,598.96" stroke="#000000" />
		</g>
		<g>
			<polygon points="572.061 182.78 569.215 183.989 568.981 182.507 " stroke="#000000" />
			<path fill="none" d=" M501,194 L572.061,182.78" stroke="#000000" />
		</g>
	</g>
	<g>
		<ellipse cx="517" cy="358" rx="5" ry="5" />
	</g>
	<g>
		<ellipse cx="434" cy="581" rx="5" ry="5" />
	</g>
	<g>
		<ellipse cx="754" cy="286" rx="5" ry="5" />
	</g>
	<g>
		<ellipse cx="443" cy="249" rx="5" ry="5" />
	</g>
	<g>
		<ellipse cx="577" cy="182" rx="5" ry="5" />
	</g>
	<g>
		<ellipse cx="492" cy="701" rx="5" ry="5" />
	</g>
	<g>
		<ellipse cx="284" cy="280" rx="5" ry="5" />
	</g>
	<g>
		<ellipse cx="593" cy="125" rx="5" ry="5" />
	</g>
	<g>
		<ellipse cx="225" cy="501" rx="5" ry="5" />
	</g>
	<g>
		<ellipse cx="244" cy="567" rx="5" ry="5" />
	</g>
	<g>
		<ellipse cx="537" cy="742" rx="5" ry="5" />
	</g>
	<g>
		<ellipse cx="367" cy="651" rx="5" ry="5" />
	</g>
	<g>
		<ellipse cx="524" cy="561" rx="5" ry="5" />
	</g>
	<g>
		<ellipse cx="790" cy="580" rx="5" ry="5" />
	</g>
	<g>
		<ellipse cx="740" cy="539" rx="5" ry="5" />
	</g>
	<g>
		<ellipse cx="558" cy="612" rx="5" ry="5" />
	</g>
	<g>
		<ellipse cx="533" cy="22" rx="5" ry="5" />
	</g>
	<g>
		<ellipse cx="394" cy="400" rx="5" ry="5" />
	</g>
	<g>
		<ellipse cx="587" cy="714" rx="5" ry="5" />
	</g>
	<g>
		<ellipse cx="333" cy="454" rx="5" ry="5" />
	</g>
	<g>
		<ellipse cx="117" cy="558" rx="5" ry="5" />
	</g>
	<g>
		<ellipse cx="692" cy="588" rx="5" ry="5" />
	</g>
	<g>
		<ellipse cx="204" cy="631" rx="5" ry="5" />
	</g>
	<g>
		<ellipse cx="144" cy="658" rx="5" ry="5" />
	</g>
	<g>
		<ellipse cx="167" cy="519" rx="5" ry="5" />
	</g>
	<g>
		<ellipse cx="700" cy="256" rx="5" ry="5" />
	</g>
	<g>
		<ellipse cx="628" cy="616" rx="5" ry="5" />
	</g>
	<g>
		<ellipse cx="642" cy="218" rx="5" ry="5" />
	</g>
	<g>
		<ellipse cx="77" cy="611" rx="5" ry="5" />
	</g>
	<g>
		<ellipse cx="361" cy="584" rx="5" ry="5" />
	</g>
	<g>
		<ellipse cx="93" cy="655" rx="5" ry="5" />
	</g>
	<g>
		<ellipse cx="586" cy="63" rx="5" ry="5" />
	</g>
	<g>
		<ellipse cx="470" cy="518" rx="5" ry="5" />
	</g>
	<g>
		<ellipse cx="809" cy="319" rx="5" ry="5" />
	</g>
	<g>
		<ellipse cx="490" cy="623" rx="5" ry="5" />
	</g>
	<g>
		<ellipse cx="58" cy="773" rx="5" ry="5" />
	</g>
	<g>
		<ellipse cx="513" cy="72" rx="5" ry="5" />
	</g>
	<g>
		<ellipse cx="469" cy="328" rx="5" ry="5" />
	</g>
	<g>
		<ellipse cx="766" cy="342" rx="5" ry="5" />
	</g>
	<g>
		<ellipse cx="751" cy="406" rx="5" ry="5" />
	</g>
	<g>
		<ellipse cx="498" cy="133" rx="5" ry="5" />
	</g>
	<g>
		<ellipse cx="767" cy="471" rx="5" ry="5" />
	</g>
	<g>
		<ellipse cx="19" cy="775" rx="5" ry="5" />
	</g>
	<g>
		<ellipse cx="302" cy="677" rx="5" ry="5" />
	</g>
	<g>
		<ellipse cx="460" cy="442" rx="5" ry="5" />
	</g>
	<g>
		<ellipse cx="501" cy="194" rx="5" ry="5" />
	</g>
	<g>
		<ellipse cx="555" cy="20" rx="5" ry="5" />
	</g>
	<g>
		<ellipse cx="50" cy="830" rx="5" ry="5" />
	</g>
	<g>
		<ellipse cx="618" cy="669" rx="5" ry="5" />
	</g>
	<g>
		<ellipse cx="146" cy="786" rx="5" ry="5" />
	</g>
	<g>
		<ellipse cx="708" cy="365" rx="5" ry="5" />
	</g>
	<g>
		<ellipse cx="48" cy="726" rx="5" ry="5" />
	</g>
	<g>
		<ellipse cx="691" cy="314" rx="5" ry="5" />
	</g>
	<g>
		<ellipse cx="438" cy="661" rx="5" ry="5" />
	</g>
	<g>
		<ellipse cx="107" cy="836" rx="5" ry="5" />
	</g>
	<g>
		<ellipse cx="379" cy="239" rx="5" ry="5" />
	</g>
	<g>
		<ellipse cx="260" cy="329" rx="5" ry="5" />
	</g>
	<g>
		<ellipse cx="743" cy="601" rx="5" ry="5" />
	</g>
	<g>
		<ellipse cx="93" cy="797" rx="5" ry="5" />
	</g>
	<g>
		<ellipse cx="266" cy="447" rx="5" ry="5" />
	</g>
	<g>
		<ellipse cx="309" cy="530" rx="5" ry="5" />
	</g>
	<g>
		<ellipse cx="530" cy="414" rx="5" ry="5" />
	</g>
	<g>
		<ellipse cx="414" cy="321" rx="5" ry="5" />
	</g>
	<g>
		<ellipse cx="255" cy="385" rx="5" ry="5" />
	</g>
	<g>
		<ellipse cx="326" cy="249" rx="5" ry="5" />
	</g>
	<g>
		<ellipse cx="595" cy="386" rx="5" ry="5" />
	</g>
	<g>
		<ellipse cx="651" cy="353" rx="5" ry="5" />
	</g>
	<g>
		<ellipse cx="190" cy="742" rx="5" ry="5" />
	</g>
	<g>
		<ellipse cx="88" cy="680" rx="5" ry="5" />
	</g>
	<g>
		<ellipse cx="849" cy="365" rx="5" ry="5" />
	</g>
	<g>
		<ellipse cx="233" cy="692" rx="5" ry="5" />
	</g>
	<g>
		<ellipse cx="823" cy="427" rx="5" ry="5" />
	</g>
</svg>
